<svg xmlns="http://www.w3.org/2000/svg" viewBox="0 0 32 32"><g id="camera"><path d="M29,16a1,1,0,0,0,1-1V12a1,1,0,0,0-1.45-.89L24.76,13H22v-.93A2.07,2.07,0,0,0,19.93,10H19V8.22A2.23,2.23,0,0,0,16.78,6H12.61a2.24,2.24,0,0,0-1.78.89L8.2,10.4a1,1,0,0,0,.2,1.4A1,1,0,0,0,9,12a1,1,0,0,0,.5-.15A1,1,0,0,0,10,12h9.93a.07.07,0,0,1,.07.07v8.86a.07.07,0,0,1-.07.07H4.07A.07.07,0,0,1,4,20.93V12.07A.07.07,0,0,1,4.07,12H6a1,1,0,0,0,0-2H4.07A2.07,2.07,0,0,0,2,12.07v8.86a2.06,2.06,0,0,0,1.22,1.88l.5,1.52A2.44,2.44,0,0,0,6,26H10a2.44,2.44,0,0,0,2.31-1.67L12.72,23h1.47l.25,1.22A2,2,0,0,0,16.27,26h2.46a2,2,0,0,0,1.83-1.78l.3-1.45A2.08,2.08,0,0,0,22,20.93V20h2.76l3.79,1.89A1,1,0,0,0,29,22a1,1,0,0,0,.53-.15A1,1,0,0,0,30,21V19a1,1,0,0,0-2,0v.38l-2-1V14.62l2-1V15A1,1,0,0,0,29,16ZM12.43,8.09A.23.23,0,0,1,12.61,8h4.17a.22.22,0,0,1,.22.22V10H11Zm-2,15.61A.44.44,0,0,1,10,24H6a.44.44,0,0,1-.41-.3L5.39,23h5.22Zm8.22.11a.85.85,0,0,1-.06.19H16.46a.85.85,0,0,1-.06-.19L16.23,23h2.54ZM22,15h2v3H22Z"/><path d="M7,19a1,1,0,0,0,1,1h5a1,1,0,0,0,0-2H9V15h6v4a1,1,0,0,0,2,0V14a1,1,0,0,0-1-1H8a1,1,0,0,0-1,1Z"/></g></svg>